<?xml version="1.0" encoding="utf-8"?>
<!-- Generator: Adobe Illustrator 19.0.0, SVG Export Plug-In . SVG Version: 6.00 Build 0)  -->
<svg version="1.1" id="Capa_1" xmlns="http://www.w3.org/2000/svg" xmlns:xlink="http://www.w3.org/1999/xlink" x="0px" y="0px"
	 viewBox="-282 373.8 46.2 46.2" style="enable-background:new -282 373.8 46.2 46.2;" xml:space="preserve">
<style type="text/css">
	.st0{fill:#FF5722;}
	.st1{fill:#FFFFFF;}
</style>
<g>
	<path class="st0" d="M-236.8,414.5l-4-24.1c-0.4-2.3-2.3-3.9-4.6-3.9h-6.1c0.7-1.2,1.1-2.7,1.1-4.2c0-4.7-3.8-8.5-8.5-8.5
		c-4.7,0-8.5,3.8-8.5,8.5c0,1.5,0.4,3,1.1,4.2h-6.1c-2.3,0-4.3,1.7-4.6,3.9l-4,24.1c-0.2,1.4,0.2,2.8,1.1,3.8
		c0.9,1.1,2.2,1.7,3.6,1.7h34.9c1.4,0,2.7-0.6,3.6-1.7C-237,417.3-236.6,415.9-236.8,414.5z M-258.9,378.8c1.9,0,3.5,1.6,3.5,3.5
		c0,1.9-1.6,3.5-3.5,3.5c-1.9,0-3.5-1.6-3.5-3.5S-260.9,378.8-258.9,378.8z"/>
	<path class="st1" d="M-258.9,400.6l10.3,9.4l4.6,0l-13.8-12.6c-0.6-0.5-1.5-0.5-2.1,0l-13.7,12.7l4.6,0L-258.9,400.6L-258.9,400.6z
		"/>
</g>
</svg>
