<?xml version="1.0" encoding="utf-8"?>
<!-- Generator: Adobe Illustrator 19.0.0, SVG Export Plug-In . SVG Version: 6.00 Build 0)  -->
<svg version="1.1" id="Capa_1" xmlns="http://www.w3.org/2000/svg" xmlns:xlink="http://www.w3.org/1999/xlink" x="0px" y="0px"
	 viewBox="-58 149.5 494.5 494.5" style="enable-background:new -58 149.5 494.5 494.5;" xml:space="preserve">
<style type="text/css">
	.st0{fill:#2196F3;}
</style>
<g>
	<path class="st0" d="M-58,171v451.5h34v-83h11.5V622l141.1-30.9V248.4l-141.1-30.9V271H-24v-66h426.5v66h-12.5v-53.4l-141.1,30.9
		v342.8L389.9,622v-82.5h12.5v83h34V171H-58z M105,397.6c5,0,9.1,4.8,9.1,10.7c0,5.9-4.1,10.7-9.1,10.7s-9.1-4.8-9.1-10.7
		S99.9,397.6,105,397.6z M-12.5,318v174.5H-24V318L-12.5,318L-12.5,318z M272.5,419c-5,0-9.1-4.8-9.1-10.7c0-5.9,4.1-10.7,9.1-10.7
		s9.1,4.8,9.1,10.7C281.6,414.2,277.5,419,272.5,419z M402.5,492.5h-12.5V318h12.5V492.5z"/>
</g>
</svg>
