<?xml version="1.0" encoding="utf-8"?>
<!-- Generator: Adobe Illustrator 19.0.0, SVG Export Plug-In . SVG Version: 6.00 Build 0)  -->
<svg version="1.1" id="Capa_1" xmlns="http://www.w3.org/2000/svg" xmlns:xlink="http://www.w3.org/1999/xlink" x="0px" y="0px"
	 viewBox="-155 247.2 299.8 299.8" style="enable-background:new -155 247.2 299.8 299.8;" xml:space="preserve">
<style type="text/css">
	.st0{fill:#2196F3;}
</style>
<path class="st0" d="M132.2,529.4l-31.8-177.6c-1.3-7.1-7.5-12.4-14.8-12.4H32.7c9.9-9.8,16.1-23.4,16.1-38.4
	c0-29.7-24.2-53.9-53.9-53.9S-59,271.4-59,301.1c0,15,6.2,28.6,16.1,38.4h-52.9c-7.3,0-13.5,5.2-14.8,12.4l-31.8,177.6
	c-0.8,4.4,0.4,8.9,3.3,12.3c2.8,3.4,7.1,5.4,11.5,5.4h245.1c4.4,0,8.7-2,11.5-5.4S133,533.7,132.2,529.4z M-5.1,277.2
	c13.2,0,23.9,10.7,23.9,23.9S8.1,324.9-5.1,324.9S-29,314.2-29,301.1C-29,287.9-18.3,277.2-5.1,277.2z M-9,479.3
	c-0.8,1.4-2.3,2.3-3.9,2.3H-20c-1.6,0-3.1-0.8-3.9-2.2l-17.5-29.9L-52.6,461v13.8c0,3.8-3.1,6.9-6.9,6.9c-3.8,0-6.9-3.1-6.9-6.9
	v-54.6c0-3.8,3.1-6.9,6.9-6.9c3.8,0,6.9,3.1,6.9,6.9v23.5l26.6-28.9c0.8-0.9,2-1.4,3.3-1.4h6.1c1.8,0,3.4,1.1,4.1,2.7
	c0.7,1.7,0.3,3.6-0.9,4.9l-18.4,19.1l22.7,34.9C-8.3,476.1-8.2,477.9-9,479.3z M59,470.2c0,1.4-0.6,2.6-1.7,3.5
	c-2.8,2.2-6.4,4.2-10.9,5.9c-5.5,2.1-11.1,3.2-16.7,3.2c-7.2,0-13.4-1.5-18.7-4.5c-5.3-3-9.3-7.3-12-12.9c-2.7-5.6-4-11.7-4-18.2
	c0-7.1,1.5-13.5,4.5-19c3-5.5,7.4-9.8,13.1-12.7c4.4-2.3,9.8-3.4,16.4-3.4c8.5,0,15.1,1.8,19.9,5.3c2.1,1.5,3.8,3.3,5.2,5.4
	c1.4,2,1.6,4.5,0.7,6.7c-0.9,2.2-2.9,3.8-5.2,4.3l0,0c-2.8,0.5-5.5-0.7-7-3.1c-1-1.5-2.2-2.8-3.6-3.9c-2.7-1.9-6-2.9-10-2.9
	c-6,0-10.8,1.9-14.4,5.7c-3.6,3.8-5.3,9.5-5.3,17c0,8.1,1.8,14.2,5.4,18.3c3.6,4.1,8.3,6.1,14.2,6.1c2.9,0,5.8-0.6,8.7-1.7
	c2.9-1.1,5.4-2.5,7.5-4.1v-8.7H35c-3.2,0-5.8-2.6-5.8-5.8c0-3.2,2.6-5.8,5.8-5.8h19.5c2.5,0,4.5,2,4.5,4.5L59,470.2L59,470.2z"/>
</svg>
