<?xml version="1.0" encoding="utf-8"?>
<!-- Generator: Adobe Illustrator 19.0.0, SVG Export Plug-In . SVG Version: 6.00 Build 0)  -->
<svg version="1.1" id="Capa_1" xmlns="http://www.w3.org/2000/svg" xmlns:xlink="http://www.w3.org/1999/xlink" x="0px" y="0px"
	 viewBox="-286 378.4 37.6 37.6" style="enable-background:new -286 378.4 37.6 37.6;" xml:space="preserve">
<style type="text/css">
	.st0{fill:#607D8B;}
</style>
<g>
	<path class="st0" d="M-252.1,413.4l-6.8-12.3l-4.5-11.7c0,0,0,0,0,0l3.1-0.4c0,0,1.2-0.3,1.7,0.8c0.6,1.1,2.3,4.2,2.3,4.2
		s0,2,0.6,2c0.6,0,2.5-0.9,1.9-1.7c-0.6-0.8-3.2-6.5-3.2-6.5s-0.5-1.2-2-1c-1.3,0.2-6-0.3-6.7,0.3c-0.3-0.1-0.6-0.2-0.9-0.2
		c-0.2-0.5-0.3-1-0.2-1.4c0.2-0.2,0.4-0.4,0.6-0.7c0.6-0.8,0.9-1.8,1-2.9c-1.1,0-2.7-1.8-3-2.3c-0.3-0.5-1.6,0.3-2.5,0.1
		c-0.6-0.2-1.6-0.8-2-1.2c0,0,0,0,0,0c0.1,0.1,0.1,0.2,0.2,0.3c0.1,0.2,0.2,0.4,0.4,0.5c0.1,0.2,0.2,0.3,0.3,0.4
		c0.1,0.1,0.1,0.1,0.1,0.1s-0.1,0-0.2-0.1c-0.1-0.1-0.2-0.1-0.4-0.3c-0.2-0.1-0.3-0.3-0.5-0.4c0,0-0.1-0.1-0.1-0.1c0,0,0,0.1,0,0.1
		c0,0.1,0.1,0.2,0.1,0.3c0,0.1,0.1,0.2,0.2,0.3c0.1,0.2,0.2,0.4,0.4,0.5c0.1,0.2,0.2,0.3,0.3,0.4c0.1,0.1,0.1,0.1,0.1,0.1
		s-0.1,0-0.1-0.1c-0.1-0.1-0.2-0.1-0.4-0.3c-0.2-0.1-0.3-0.3-0.5-0.4c-0.1-0.1-0.2-0.2-0.3-0.3c-0.1-0.1-0.2-0.2-0.2-0.3
		c-0.1-0.1-0.1-0.2-0.2-0.3c0,0,0,0,0,0c0,0.2,0.1,0.3,0.2,0.5c0,0.1,0.1,0.2,0.1,0.2c0,0.1,0.1,0.2,0.2,0.2
		c0.1,0.1,0.2,0.3,0.4,0.4c0.1,0.1,0.2,0.2,0.3,0.2c0.1,0.1,0.1,0.1,0.1,0.1s0,0-0.1,0c-0.1,0-0.2-0.1-0.4-0.1
		c-0.1-0.1-0.3-0.1-0.5-0.2c-0.1,0-0.2-0.1-0.3-0.2c-0.1-0.1-0.2-0.1-0.3-0.2c0,0,0,0-0.1-0.1c-0.1,0.4-0.2,0.8-0.2,1.3
		c0,0.1-0.1,0.3-0.1,0.5c-0.2,0.5-0.6,2.1,0.3,1.6c0.4-0.2,0.4,0,0.4,0l0.1,0.2c0.2,0.7,0.4,1.2,0.9,1.7c0.1,0.1,0.4,0.3,0.6,0.1
		c0,0,0.3-0.2,0.4-0.1c0.1,0.1-0.4,0.5-0.2,0.6c0.7,0.5,1.8,0.9,2.8,0.8c0,0,0.1,0,0.1,0c0.2,0.5,0.1,0.9,0,1.1
		c-0.2,0.1-0.4,0.3-0.6,0.5c0,0,0-0.1,0-0.1l-4.2,4c0,0-0.8,0.9-1.9,0.3c-1.1-0.7-4.2-2.5-4.2-2.5s-1.1-1.8-1.6-1.4
		c-0.5,0.3-1.6,2.3-0.6,2.6c0.9,0.3,6.3,4,6.3,4s1.1,0.8,2.2-0.2c1.1-1.1,3.2-1.2,3.2-2.3c0-0.1,0-0.1,0-0.2l3.5,7.4h-0.9
		c-1.1,0-1.9,0.8-1.9,1.8c0,0.3,0.1,0.6,0.3,0.9c0,0,0,0,0,0l4.5,8.1c0.3,0.6,1,1,1.7,1c0.3,0,0.6-0.1,0.8-0.2c0.5-0.2,0.8-0.6,1-1
		c0.2-0.5,0.1-0.9-0.1-1.4l-3.1-5.6h2.3c0,0,0.6,0,1.4-0.6c0.2-0.2,0.4-0.3,0.4-0.3s0,0-0.1,0.1c0,0.1-0.1,0.2-0.2,0.3
		c-0.2,0.2-0.5,0.5-0.8,0.8c-0.1,0.1-0.1,0.1-0.2,0.2l6.3,11.4c0.3,0.6,1,1,1.7,1c0.3,0,0.6-0.1,0.8-0.2c0.5-0.2,0.8-0.6,1-1
		C-251.9,414.3-251.9,413.8-252.1,413.4z"/>
</g>
</svg>
