<?xml version="1.0" encoding="utf-8"?>
<!-- Generator: Adobe Illustrator 19.0.0, SVG Export Plug-In . SVG Version: 6.00 Build 0)  -->
<svg version="1.1" id="Capa_1" xmlns="http://www.w3.org/2000/svg" xmlns:xlink="http://www.w3.org/1999/xlink" x="0px" y="0px"
	 viewBox="-125 217.9 359.1 359.1" style="enable-background:new -125 217.9 359.1 359.1;" xml:space="preserve">
<style type="text/css">
	.st0{fill:#607D8B;}
</style>
<g>
	<path class="st0" d="M204.9,363.2l-47.5-135.4c-2.1-6-7.8-10-14.2-10s-12,4-14.2,10L81.5,363.2c-7.1,20.3-4.1,41.9,8.3,59.5
		c12.4,17.5,31.9,27.6,53.3,27.6s40.9-10.1,53.3-27.6C209,405.2,212,383.5,204.9,363.2z M172.1,405.4c-6.7,9.5-17.2,14.9-28.9,14.9
		c-11.6,0-22.1-5.4-28.9-14.9c-6.7-9.5-8.4-21.2-4.5-32.2l33.4-95.1l33.4,95.1C180.4,384.2,178.8,395.9,172.1,405.4z"/>
	<path class="st0" d="M43.6,388.7c-2.1-6-7.8-10-14.2-10s-12,4-14.2,10l-39.5,112.5c-6.1,17.4-3.4,36.7,7.3,51.7
		c10.6,15,28,24,46.4,24s35.8-9,46.4-24c10.6-15,13.4-34.4,7.3-51.7L43.6,388.7z M51.4,535.7c-5.1,7.2-13.1,11.3-21.9,11.3
		s-16.8-4.1-21.9-11.3c-5.1-7.2-6.4-16.1-3.4-24.5L29.4,439l25.4,72.2C57.7,519.5,56.5,528.5,51.4,535.7z"/>
	<path class="st0" d="M-16.3,375.1c8.6-12.1,10.8-27.7,5.9-41.7l-29.1-82.9c-2.1-6-7.8-10-14.2-10s-12,4-14.2,10l-29.1,82.9
		c-4.9,14-2.7,29.6,5.9,41.7c8.6,12.1,22.6,19.3,37.4,19.3S-24.9,387.2-16.3,375.1z M-40.8,357.8c-3,4.2-7.7,6.7-12.9,6.7
		s-9.9-2.4-12.9-6.7s-3.7-9.5-2-14.4l14.9-42.6l14.9,42.6C-37,348.3-37.8,353.5-40.8,357.8z"/>
</g>
</svg>
