<?xml version="1.0" encoding="utf-8"?>
<!-- Generator: Adobe Illustrator 19.0.0, SVG Export Plug-In . SVG Version: 6.00 Build 0)  -->
<svg version="1.1" id="Capa_1" xmlns="http://www.w3.org/2000/svg" xmlns:xlink="http://www.w3.org/1999/xlink" x="0px" y="0px"
	 viewBox="-45 136.7 520.3 520.3" style="enable-background:new -45 136.7 520.3 520.3;" xml:space="preserve">
<style type="text/css">
	.st0{fill:#FF5722;}
</style>
<g>
	<path class="st0" d="M400.2,136.7H97.6c-6.7,0-12.1,5.4-12.1,12.1v181h16.6c-5-6.4-7.7-14.2-7.7-22.5c0-9.8,3.8-18.9,10.7-25.8
		c1.4-1.4,3-2.7,4.6-3.8V160.9h278.4v8.7L261,261.8V657l127.8-92.8c1.6,4.8,6.1,8.2,11.4,8.2c6.7,0,12.1-5.4,12.1-12.1V148.8
		C412.3,142.1,406.9,136.7,400.2,136.7z M309,468.6c-5.7,0-10.5-7-11.7-16.5h-13.6v-10.6h13.8c1.4-8.9,6-15.4,11.5-15.4
		c6.6,0,12,9.5,12,21.2C321,459.1,315.7,468.6,309,468.6z M105.1,451.1c1.4,1.4,3,2.7,4.6,3.8v105.4c0,6.7-5.4,12.1-12.1,12.1
		c-6.7,0-12.1-5.4-12.1-12.1V402.8h16.6C90.9,417.1,91.9,437.9,105.1,451.1z M191.7,355c4.8,4.8,4.8,12.6,0,17.4l-59,59
		c-2.4,2.4-5.6,3.6-8.7,3.6c-3.2,0-6.3-1.2-8.7-3.6c-4.8-4.8-4.8-12.6,0-17.4l38-38H30.3c-6.8,0-12.3-5.5-12.3-12.3
		c0-6.8,5.5-12.3,12.3-12.3h122.9l-38-38c-4.8-4.8-4.8-12.6,0-17.4c4.8-4.8,12.6-4.8,17.4,0L191.7,355z"/>
</g>
</svg>
